<svg width="34" height="34" viewBox="0 0 34 34" fill="none" xmlns="http://www.w3.org/2000/svg">
<path d="M19.6154 2.61538C19.6154 1.16875 18.4466 0 17 0C15.5534 0 14.3846 1.16875 14.3846 2.61538V14.3846H2.61538C1.16875 14.3846 0 15.5534 0 17C0 18.4466 1.16875 19.6154 2.61538 19.6154H14.3846V31.3846C14.3846 32.8312 15.5534 34 17 34C18.4466 34 19.6154 32.8312 19.6154 31.3846V19.6154H31.3846C32.8312 19.6154 34 18.4466 34 17C34 15.5534 32.8312 14.3846 31.3846 14.3846H19.6154V2.61538Z" fill="white"/>
</svg>
