<svg width="60" height="48" viewBox="0 0 60 48" fill="none" xmlns="http://www.w3.org/2000/svg">
<path d="M6 6H27V6.91875C27 10.575 24.7781 13.8562 21.3844 15.2062C15.7125 17.4844 12 22.9688 12 29.0813V36H6V6ZM33 6H54V36H47.6531L47.3063 35.5781L40.2562 27.1219C39.4031 26.1 38.1375 25.5 36.7969 25.5H30.1312L26.2875 19.5844C26.2594 19.5375 26.2312 19.4906 26.1937 19.4531C30.3844 16.7344 32.9906 12.0469 32.9906 6.92813V6.00937L33 6ZM39.8438 36H35.55L39.5531 42H55.5C57.9844 42 60 39.9844 60 37.5V4.5C60 2.01562 57.9844 0 55.5 0H4.5C2.01562 0 0 2.01562 0 4.5V37.5C0 39.9844 2.01562 42 4.5 42H28.8938L32.0062 46.6687C32.925 48.0469 34.7906 48.4219 36.1687 47.5031C37.5469 46.5844 37.9219 44.7187 37.0031 43.3406L29.1094 31.5H36.1031L39.8531 36H39.8438ZM24.8906 36H18V29.0813C18 28.125 18.15 27.1969 18.4406 26.3156L24.8906 36ZM18 12C18 10.8065 17.5259 9.66193 16.682 8.81802C15.8381 7.97411 14.6935 7.5 13.5 7.5C12.3065 7.5 11.1619 7.97411 10.318 8.81802C9.47411 9.66193 9 10.8065 9 12C9 13.1935 9.47411 14.3381 10.318 15.182C11.1619 16.0259 12.3065 16.5 13.5 16.5C14.6935 16.5 15.8381 16.0259 16.682 15.182C17.5259 14.3381 18 13.1935 18 12Z" fill="white"/>
</svg>
