<svg width="250" height="146" viewBox="0 0 250 146" fill="none" xmlns="http://www.w3.org/2000/svg">
<path d="M75 0C33.5938 0 0 32.6606 0 72.9167C0 113.173 33.5938 145.833 75 145.833H175C216.406 145.833 250 113.173 250 72.9167C250 32.6606 216.406 0 175 0H75ZM193.75 39.4965C197.894 39.4965 201.868 41.097 204.799 43.9459C207.729 46.7947 209.375 50.6586 209.375 54.6875C209.375 58.7164 207.729 62.5803 204.799 65.4291C201.868 68.278 197.894 69.8785 193.75 69.8785C189.606 69.8785 185.632 68.278 182.701 65.4291C179.771 62.5803 178.125 58.7164 178.125 54.6875C178.125 50.6586 179.771 46.7947 182.701 43.9459C185.632 41.097 189.606 39.4965 193.75 39.4965ZM153.125 91.1458C153.125 87.1169 154.771 83.2531 157.701 80.4042C160.632 77.5553 164.606 75.9549 168.75 75.9549C172.894 75.9549 176.868 77.5553 179.799 80.4042C182.729 83.2531 184.375 87.1169 184.375 91.1458C184.375 95.1747 182.729 99.0386 179.799 101.887C176.868 104.736 172.894 106.337 168.75 106.337C164.606 106.337 160.632 104.736 157.701 101.887C154.771 99.0386 153.125 95.1747 153.125 91.1458ZM65.625 51.6493C65.625 46.5983 69.8047 42.5347 75 42.5347C80.1953 42.5347 84.375 46.5983 84.375 51.6493V63.8021H96.875C102.07 63.8021 106.25 67.8657 106.25 72.9167C106.25 77.9677 102.07 82.0312 96.875 82.0312H84.375V94.184C84.375 99.235 80.1953 103.299 75 103.299C69.8047 103.299 65.625 99.235 65.625 94.184V82.0312H53.125C47.9297 82.0312 43.75 77.9677 43.75 72.9167C43.75 67.8657 47.9297 63.8021 53.125 63.8021H65.625V51.6493Z" fill="#0004FF"/>
</svg>
