<svg width="55" height="32" viewBox="0 0 55 32" fill="none" xmlns="http://www.w3.org/2000/svg">
<path d="M16.4571 0C7.37143 0 0 7.16667 0 16C0 24.8333 7.37143 32 16.4571 32H38.4C47.4857 32 54.8571 24.8333 54.8571 16C54.8571 7.16667 47.4857 0 38.4 0H16.4571ZM42.5143 8.66667C43.4236 8.66667 44.2957 9.01786 44.9387 9.64298C45.5816 10.2681 45.9429 11.1159 45.9429 12C45.9429 12.8841 45.5816 13.7319 44.9387 14.357C44.2957 14.9821 43.4236 15.3333 42.5143 15.3333C41.605 15.3333 40.7329 14.9821 40.0899 14.357C39.4469 13.7319 39.0857 12.8841 39.0857 12C39.0857 11.1159 39.4469 10.2681 40.0899 9.64298C40.7329 9.01786 41.605 8.66667 42.5143 8.66667ZM33.6 20C33.6 19.1159 33.9612 18.2681 34.6042 17.643C35.2472 17.0179 36.1193 16.6667 37.0286 16.6667C37.9379 16.6667 38.81 17.0179 39.4529 17.643C40.0959 18.2681 40.4571 19.1159 40.4571 20C40.4571 20.8841 40.0959 21.7319 39.4529 22.357C38.81 22.9821 37.9379 23.3333 37.0286 23.3333C36.1193 23.3333 35.2472 22.9821 34.6042 22.357C33.9612 21.7319 33.6 20.8841 33.6 20ZM14.4 11.3333C14.4 10.225 15.3171 9.33333 16.4571 9.33333C17.5971 9.33333 18.5143 10.225 18.5143 11.3333V14H21.2571C22.3971 14 23.3143 14.8917 23.3143 16C23.3143 17.1083 22.3971 18 21.2571 18H18.5143V20.6667C18.5143 21.775 17.5971 22.6667 16.4571 22.6667C15.3171 22.6667 14.4 21.775 14.4 20.6667V18H11.6571C10.5171 18 9.6 17.1083 9.6 16C9.6 14.8917 10.5171 14 11.6571 14H14.4V11.3333Z" fill="#18194B"/>
</svg>
