<svg width="206" height="120" viewBox="0 0 206 120" fill="none" xmlns="http://www.w3.org/2000/svg">
<path d="M61.7143 0C27.6429 0 0 26.875 0 60C0 93.125 27.6429 120 61.7143 120H144C178.071 120 205.714 93.125 205.714 60C205.714 26.875 178.071 0 144 0H61.7143ZM159.429 32.5C162.839 32.5 166.109 33.817 168.52 36.1612C170.931 38.5054 172.286 41.6848 172.286 45C172.286 48.3152 170.931 51.4946 168.52 53.8388C166.109 56.183 162.839 57.5 159.429 57.5C156.019 57.5 152.748 56.183 150.337 53.8388C147.926 51.4946 146.571 48.3152 146.571 45C146.571 41.6848 147.926 38.5054 150.337 36.1612C152.748 33.817 156.019 32.5 159.429 32.5ZM126 75C126 71.6848 127.355 68.5054 129.766 66.1612C132.177 63.817 135.447 62.5 138.857 62.5C142.267 62.5 145.537 63.817 147.949 66.1612C150.36 68.5054 151.714 71.6848 151.714 75C151.714 78.3152 150.36 81.4946 147.949 83.8388C145.537 86.183 142.267 87.5 138.857 87.5C135.447 87.5 132.177 86.183 129.766 83.8388C127.355 81.4946 126 78.3152 126 75ZM54 42.5C54 38.3438 57.4393 35 61.7143 35C65.9893 35 69.4286 38.3438 69.4286 42.5V52.5H79.7143C83.9893 52.5 87.4286 55.8438 87.4286 60C87.4286 64.1562 83.9893 67.5 79.7143 67.5H69.4286V77.5C69.4286 81.6562 65.9893 85 61.7143 85C57.4393 85 54 81.6562 54 77.5V67.5H43.7143C39.4393 67.5 36 64.1562 36 60C36 55.8438 39.4393 52.5 43.7143 52.5H54V42.5Z" fill="#FEFEFF"/>
</svg>
