<svg width="43" height="45" viewBox="0 0 43 45" fill="none" xmlns="http://www.w3.org/2000/svg">
<path d="M42.3046 14.6454C42.5859 15.4102 42.3485 16.2629 41.7419 16.808L37.9355 20.2715C38.0322 21.0012 38.085 21.7484 38.085 22.5044C38.085 23.2604 38.0322 24.0076 37.9355 24.7373L41.7419 28.2008C42.3485 28.7458 42.5859 29.5986 42.3046 30.3634C41.9178 31.4095 41.4518 32.4116 40.9156 33.3786L40.5024 34.0906C39.9222 35.0576 39.2717 35.9719 38.5597 36.8334C38.041 37.4663 37.1795 37.6773 36.4059 37.4311L31.5095 35.8752C30.3315 36.7806 29.0305 37.5366 27.6415 38.108L26.5427 43.1276C26.3669 43.9275 25.7515 44.5605 24.9428 44.6923C23.7296 44.8945 22.4813 45 21.2067 45C19.932 45 18.6837 44.8945 17.4706 44.6923C16.6618 44.5605 16.0465 43.9275 15.8707 43.1276L14.7718 38.108C13.3829 37.5366 12.0818 36.7806 10.9039 35.8752L6.01621 37.4399C5.24262 37.6861 4.38113 37.4663 3.86247 36.8422C3.15042 35.9807 2.4999 35.0664 1.91971 34.0994L1.50654 33.3874C0.970305 32.4204 0.504394 31.4182 0.117599 30.3721C-0.163706 29.6073 0.0736453 28.7546 0.680209 28.2096L4.48662 24.746C4.38992 24.0076 4.33717 23.2604 4.33717 22.5044C4.33717 21.7484 4.38992 21.0012 4.48662 20.2715L0.680209 16.808C0.0736453 16.2629 -0.163706 15.4102 0.117599 14.6454C0.504394 13.5993 0.970305 12.5972 1.50654 11.6302L1.91971 10.9181C2.4999 9.95116 3.15042 9.03692 3.86247 8.17543C4.38113 7.54249 5.24262 7.33151 6.01621 7.57765L10.9127 9.13362C12.0906 8.22817 13.3917 7.47216 14.7806 6.90076L15.8795 1.88123C16.0553 1.08127 16.6706 0.44833 17.4794 0.316468C18.6925 0.105489 19.9408 0 21.2155 0C22.4901 0 23.7384 0.105489 24.9516 0.307677C25.7603 0.439539 26.3757 1.07248 26.5515 1.87244L27.6503 6.89197C29.0393 7.46337 30.3403 8.21938 31.5183 9.12483L36.4147 7.56886C37.1883 7.32272 38.0498 7.54249 38.5685 8.16663C39.2805 9.02813 39.931 9.94237 40.5112 10.9094L40.9244 11.6214C41.4606 12.5884 41.9265 13.5905 42.3133 14.6366L42.3046 14.6454ZM21.2155 29.537C23.0806 29.537 24.8694 28.7961 26.1883 27.4772C27.5072 26.1583 28.2481 24.3696 28.2481 22.5044C28.2481 20.6392 27.5072 18.8505 26.1883 17.5316C24.8694 16.2127 23.0806 15.4718 21.2155 15.4718C19.3503 15.4718 17.5615 16.2127 16.2427 17.5316C14.9238 18.8505 14.1828 20.6392 14.1828 22.5044C14.1828 24.3696 14.9238 26.1583 16.2427 27.4772C17.5615 28.7961 19.3503 29.537 21.2155 29.537Z" fill="white"/>
</svg>
