<svg width="33" height="35" viewBox="0 0 33 35" fill="none" xmlns="http://www.w3.org/2000/svg">
<path d="M32.9035 11.3909C33.1223 11.9857 32.9377 12.649 32.466 13.0729L29.5054 15.7668C29.5806 16.3342 29.6216 16.9154 29.6216 17.5034C29.6216 18.0914 29.5806 18.6726 29.5054 19.2401L32.466 21.934C32.9377 22.3579 33.1223 23.0211 32.9035 23.6159C32.6027 24.4296 32.2403 25.209 31.8232 25.9611L31.5019 26.5149C31.0506 27.267 30.5447 27.9781 29.9909 28.6482C29.5875 29.1405 28.9174 29.3046 28.3157 29.1131L24.5074 27.9029C23.5912 28.6071 22.5793 29.1952 21.499 29.6396L20.6443 33.5437C20.5076 34.1659 20.029 34.6581 19.3999 34.7607C18.4564 34.9179 17.4855 35 16.4941 35C15.5027 35 14.5318 34.9179 13.5882 34.7607C12.9592 34.6581 12.4806 34.1659 12.3439 33.5437L11.4892 29.6396C10.4089 29.1952 9.39699 28.6071 8.4808 27.9029L4.67928 29.1199C4.0776 29.3114 3.40754 29.1405 3.00414 28.655C2.45033 27.985 1.94437 27.2739 1.49311 26.5218L1.17176 25.968C0.754682 25.2159 0.392306 24.4364 0.0914661 23.6228C-0.127327 23.0279 0.0572797 22.3647 0.529052 21.9408L3.48959 19.2469C3.41438 18.6726 3.37336 18.0914 3.37336 17.5034C3.37336 16.9154 3.41438 16.3342 3.48959 15.7668L0.529052 13.0729C0.0572797 12.649 -0.127327 11.9857 0.0914661 11.3909C0.392306 10.5773 0.754682 9.79781 1.17176 9.04571L1.49311 8.49189C1.94437 7.73979 2.45033 7.02872 3.00414 6.35866C3.40754 5.86638 4.0776 5.70229 4.67928 5.89373L8.48764 7.10393C9.40383 6.39969 10.4157 5.81168 11.496 5.36726L12.3507 1.46318C12.4874 0.840984 12.9661 0.348701 13.5951 0.246142C14.5386 0.0820473 15.5095 0 16.5009 0C17.4923 0 18.4632 0.0820473 19.4068 0.239305C20.0358 0.341864 20.5144 0.834147 20.6511 1.45634L21.5058 5.36042C22.5861 5.80484 23.598 6.39285 24.5142 7.09709L28.3226 5.88689C28.9242 5.69545 29.5943 5.86638 29.9977 6.35183C30.5515 7.02188 31.0575 7.73296 31.5087 8.48505L31.8301 9.03887C32.2472 9.79097 32.6095 10.5704 32.9104 11.3841L32.9035 11.3909ZM16.5009 22.9732C17.9516 22.9732 19.3429 22.397 20.3687 21.3712C21.3945 20.3454 21.9707 18.9541 21.9707 17.5034C21.9707 16.0527 21.3945 14.6615 20.3687 13.6357C19.3429 12.6099 17.9516 12.0336 16.5009 12.0336C15.0502 12.0336 13.659 12.6099 12.6332 13.6357C11.6074 14.6615 11.0311 16.0527 11.0311 17.5034C11.0311 18.9541 11.6074 20.3454 12.6332 21.3712C13.659 22.397 15.0502 22.9732 16.5009 22.9732Z" fill="#0003A7"/>
</svg>
