<svg width="57" height="45" viewBox="0 0 57 45" fill="none" xmlns="http://www.w3.org/2000/svg">
<path d="M12.6562 0C14.5211 0 16.3095 0.74079 17.6281 2.05941C18.9467 3.37802 19.6875 5.16645 19.6875 7.03125C19.6875 8.89605 18.9467 10.6845 17.6281 12.0031C16.3095 13.3217 14.5211 14.0625 12.6562 14.0625C10.7914 14.0625 9.00302 13.3217 7.68441 12.0031C6.36579 10.6845 5.625 8.89605 5.625 7.03125C5.625 5.16645 6.36579 3.37802 7.68441 2.05941C9.00302 0.74079 10.7914 0 12.6562 0ZM45 0C46.8648 0 48.6532 0.74079 49.9718 2.05941C51.2905 3.37802 52.0312 5.16645 52.0312 7.03125C52.0312 8.89605 51.2905 10.6845 49.9718 12.0031C48.6532 13.3217 46.8648 14.0625 45 14.0625C43.1352 14.0625 41.3468 13.3217 40.0282 12.0031C38.7095 10.6845 37.9688 8.89605 37.9688 7.03125C37.9688 5.16645 38.7095 3.37802 40.0282 2.05941C41.3468 0.74079 43.1352 0 45 0ZM0 26.2529C0 21.0762 4.20117 16.875 9.37793 16.875H13.1309C14.5283 16.875 15.8555 17.1826 17.0508 17.7275C16.9365 18.3604 16.8838 19.0195 16.8838 19.6875C16.8838 23.0449 18.3604 26.0596 20.6895 28.125C20.6719 28.125 20.6543 28.125 20.6279 28.125H1.87207C0.84375 28.125 0 27.2813 0 26.2529ZM35.6221 28.125C35.6045 28.125 35.5869 28.125 35.5605 28.125C37.8984 26.0596 39.3662 23.0449 39.3662 19.6875C39.3662 19.0195 39.3047 18.3691 39.1992 17.7275C40.3945 17.1738 41.7217 16.875 43.1191 16.875H46.8721C52.0488 16.875 56.25 21.0762 56.25 26.2529C56.25 27.29 55.4062 28.125 54.3779 28.125H35.6309H35.6221ZM19.6875 19.6875C19.6875 17.4497 20.5764 15.3036 22.1588 13.7213C23.7411 12.1389 25.8872 11.25 28.125 11.25C30.3628 11.25 32.5089 12.1389 34.0912 13.7213C35.6736 15.3036 36.5625 17.4497 36.5625 19.6875C36.5625 21.9253 35.6736 24.0714 34.0912 25.6537C32.5089 27.2361 30.3628 28.125 28.125 28.125C25.8872 28.125 23.7411 27.2361 22.1588 25.6537C20.5764 24.0714 19.6875 21.9253 19.6875 19.6875ZM11.25 42.6533C11.25 36.1846 16.4971 30.9375 22.9658 30.9375H33.2754C39.7529 30.9375 45 36.1846 45 42.6533C45 43.9453 43.9541 45 42.6533 45H13.5879C12.2959 45 11.2412 43.9541 11.2412 42.6533H11.25Z" fill="white"/>
</svg>
