<svg width="53" height="42" viewBox="0 0 53 42" fill="none" xmlns="http://www.w3.org/2000/svg">
<path d="M11.8125 0C13.553 0 15.2222 0.691404 16.4529 1.92211C17.6836 3.15282 18.375 4.82202 18.375 6.5625C18.375 8.30298 17.6836 9.97218 16.4529 11.2029C15.2222 12.4336 13.553 13.125 11.8125 13.125C10.072 13.125 8.40282 12.4336 7.17211 11.2029C5.9414 9.97218 5.25 8.30298 5.25 6.5625C5.25 4.82202 5.9414 3.15282 7.17211 1.92211C8.40282 0.691404 10.072 0 11.8125 0ZM42 0C43.7405 0 45.4097 0.691404 46.6404 1.92211C47.8711 3.15282 48.5625 4.82202 48.5625 6.5625C48.5625 8.30298 47.8711 9.97218 46.6404 11.2029C45.4097 12.4336 43.7405 13.125 42 13.125C40.2595 13.125 38.5903 12.4336 37.3596 11.2029C36.1289 9.97218 35.4375 8.30298 35.4375 6.5625C35.4375 4.82202 36.1289 3.15282 37.3596 1.92211C38.5903 0.691404 40.2595 0 42 0ZM0 24.5027C0 19.6711 3.92109 15.75 8.75273 15.75H12.2555C13.5598 15.75 14.7984 16.0371 15.9141 16.5457C15.8074 17.1363 15.7582 17.7516 15.7582 18.375C15.7582 21.5086 17.1363 24.3223 19.3102 26.25C19.2938 26.25 19.2773 26.25 19.2527 26.25H1.74727C0.7875 26.25 0 25.4625 0 24.5027ZM33.2473 26.25C33.2309 26.25 33.2145 26.25 33.1898 26.25C35.3719 24.3223 36.7418 21.5086 36.7418 18.375C36.7418 17.7516 36.6844 17.1445 36.5859 16.5457C37.7016 16.0289 38.9402 15.75 40.2445 15.75H43.7473C48.5789 15.75 52.5 19.6711 52.5 24.5027C52.5 25.4707 51.7125 26.25 50.7527 26.25H33.2555H33.2473ZM18.375 18.375C18.375 16.2864 19.2047 14.2834 20.6815 12.8065C22.1584 11.3297 24.1614 10.5 26.25 10.5C28.3386 10.5 30.3416 11.3297 31.8185 12.8065C33.2953 14.2834 34.125 16.2864 34.125 18.375C34.125 20.4636 33.2953 22.4666 31.8185 23.9435C30.3416 25.4203 28.3386 26.25 26.25 26.25C24.1614 26.25 22.1584 25.4203 20.6815 23.9435C19.2047 22.4666 18.375 20.4636 18.375 18.375ZM10.5 39.8098C10.5 33.7723 15.3973 28.875 21.4348 28.875H31.057C37.1027 28.875 42 33.7723 42 39.8098C42 41.0156 41.0238 42 39.8098 42H12.682C11.4762 42 10.4918 41.0238 10.4918 39.8098H10.5Z" fill="#0003A7"/>
</svg>
