<svg width="70" height="63" viewBox="0 0 70 63" fill="none" xmlns="http://www.w3.org/2000/svg">
<path d="M69.9816 31.0584C69.9816 33.2464 68.1583 34.9604 66.0918 34.9604H62.2019L62.2869 54.4342C62.2869 54.7624 62.2626 55.0906 62.2262 55.4188V57.3881C62.2262 60.0746 60.0503 62.2505 57.3638 62.2505H55.4188C55.2851 62.2505 55.1514 62.2505 55.0177 62.2383C54.8475 62.2505 54.6773 62.2505 54.5072 62.2505L50.5565 62.2383H47.6391C44.9526 62.2383 42.7767 60.0624 42.7767 57.3759V54.4585V46.6787C42.7767 44.5271 41.0384 42.7888 38.8868 42.7888H31.107C28.9554 42.7888 27.2171 44.5271 27.2171 46.6787V54.4585V57.3759C27.2171 60.0624 25.0412 62.2383 22.3547 62.2383H19.4373H15.5596C15.3772 62.2383 15.1949 62.2262 15.0126 62.214C14.8667 62.2262 14.7208 62.2383 14.575 62.2383H12.63C9.94354 62.2383 7.76763 60.0624 7.76763 57.3759V43.7613C7.76763 43.6519 7.76763 43.5304 7.77979 43.421V34.9483H3.88989C1.70183 34.9483 0 33.2464 0 31.0462C0 29.9522 0.364678 28.9797 1.21559 28.1288L32.3712 0.972474C33.2221 0.121559 34.1946 0 35.0455 0C35.8964 0 36.8689 0.243118 37.5983 0.850915L68.6445 28.141C69.617 28.9919 70.1032 29.9643 69.9816 31.0584Z" fill="white"/>
</svg>
