<svg width="51" height="45" viewBox="0 0 51 45" fill="none" xmlns="http://www.w3.org/2000/svg">
<path d="M30.9375 12.6562C30.9375 8.77148 34.084 5.625 37.9688 5.625C41.8535 5.625 45 8.77148 45 12.6562V16.875C45 18.4307 46.2568 19.6875 47.8125 19.6875C49.3682 19.6875 50.625 18.4307 50.625 16.875V12.6562C50.625 5.66895 44.9561 0 37.9688 0C30.9814 0 25.3125 5.66895 25.3125 12.6562V16.875H5.625C2.52246 16.875 0 19.3975 0 22.5V39.375C0 42.4775 2.52246 45 5.625 45H33.75C36.8525 45 39.375 42.4775 39.375 39.375V22.5C39.375 19.3975 36.8525 16.875 33.75 16.875H30.9375V12.6562Z" fill="white"/>
</svg>
