<svg width="40" height="45" viewBox="0 0 40 45" fill="none" xmlns="http://www.w3.org/2000/svg">
<path d="M12.6562 12.6562V16.875H26.7188V12.6562C26.7188 8.77148 23.5723 5.625 19.6875 5.625C15.8027 5.625 12.6562 8.77148 12.6562 12.6562ZM7.03125 16.875V12.6562C7.03125 5.66895 12.7002 0 19.6875 0C26.6748 0 32.3438 5.66895 32.3438 12.6562V16.875H33.75C36.8525 16.875 39.375 19.3975 39.375 22.5V39.375C39.375 42.4775 36.8525 45 33.75 45H5.625C2.52246 45 0 42.4775 0 39.375V22.5C0 19.3975 2.52246 16.875 5.625 16.875H7.03125Z" fill="white"/>
</svg>
