<svg width="52" height="45" viewBox="0 0 52 45" fill="none" xmlns="http://www.w3.org/2000/svg">
<path d="M50.4844 24.7701C51.74 23.5145 51.74 21.4754 50.4844 20.2199L37.6272 7.36272C36.3717 6.10714 34.3326 6.10714 33.077 7.36272C31.8214 8.6183 31.8214 10.6574 33.077 11.9129L40.4498 19.2857H19.2857C17.5078 19.2857 16.0714 20.7221 16.0714 22.5C16.0714 24.2779 17.5078 25.7143 19.2857 25.7143H40.4498L33.077 33.0871C31.8214 34.3426 31.8214 36.3817 33.077 37.6373C34.3326 38.8929 36.3717 38.8929 37.6272 37.6373L50.4844 24.7801V24.7701ZM16.0714 6.42857C17.8493 6.42857 19.2857 4.99219 19.2857 3.21429C19.2857 1.43638 17.8493 0 16.0714 0H9.64286C4.3192 0 0 4.3192 0 9.64286V35.3571C0 40.6808 4.3192 45 9.64286 45H16.0714C17.8493 45 19.2857 43.5636 19.2857 41.7857C19.2857 40.0078 17.8493 38.5714 16.0714 38.5714H9.64286C7.86495 38.5714 6.42857 37.135 6.42857 35.3571V9.64286C6.42857 7.86495 7.86495 6.42857 9.64286 6.42857H16.0714Z" fill="white"/>
</svg>
