<svg width="30" height="34" viewBox="0 0 30 34" fill="none" xmlns="http://www.w3.org/2000/svg">
<path d="M14.875 17C17.1293 17 19.2913 16.1045 20.8854 14.5104C22.4795 12.9163 23.375 10.7543 23.375 8.5C23.375 6.24566 22.4795 4.08365 20.8854 2.48959C19.2913 0.895533 17.1293 0 14.875 0C12.6207 0 10.4587 0.895533 8.86459 2.48959C7.27053 4.08365 6.375 6.24566 6.375 8.5C6.375 10.7543 7.27053 12.9163 8.86459 14.5104C10.4587 16.1045 12.6207 17 14.875 17ZM11.8402 20.1875C5.29922 20.1875 0 25.4867 0 32.0277C0 33.1168 0.883203 34 1.97227 34H27.7777C28.8668 34 29.75 33.1168 29.75 32.0277C29.75 25.4867 24.4508 20.1875 17.9098 20.1875H11.8402Z" fill="#18194B"/>
</svg>
