<svg width="50" height="45" viewBox="0 0 50 45" fill="none" xmlns="http://www.w3.org/2000/svg">
<path d="M30.9375 19.6875H26.8506C22.8955 19.6875 19.6875 22.8955 19.6875 26.8506C19.6875 28.8105 20.5928 29.8652 21.375 30.4102C21.9727 30.8232 22.5 31.4648 22.5 32.1943C22.5 33.0557 21.7969 33.7588 20.9355 33.7588H20.7158C20.5049 33.7588 20.2939 33.7236 20.0918 33.6357C18.5273 32.9414 11.25 29.3027 11.25 21.0938C11.25 14.1064 16.9189 8.4375 23.9062 8.4375H30.9375V3.0498C30.9375 1.3623 32.2998 0 33.9873 0C34.7432 0 35.4639 0.28125 36.0264 0.782227L48.1728 11.7158C48.8408 12.3135 49.2188 13.166 49.2188 14.0625C49.2188 14.959 48.8408 15.8115 48.1728 16.4092L35.9561 27.4043C35.4375 27.8701 34.7695 28.125 34.0752 28.125H33.75C32.1943 28.125 30.9375 26.8682 30.9375 25.3125V19.6875ZM7.03125 8.4375C6.25781 8.4375 5.625 9.07031 5.625 9.84375V37.9688C5.625 38.7422 6.25781 39.375 7.03125 39.375H35.1562C35.9297 39.375 36.5625 38.7422 36.5625 37.9688V33.75C36.5625 32.1943 37.8193 30.9375 39.375 30.9375C40.9307 30.9375 42.1875 32.1943 42.1875 33.75V37.9688C42.1875 41.8535 39.041 45 35.1562 45H7.03125C3.14648 45 0 41.8535 0 37.9688V9.84375C0 5.95898 3.14648 2.8125 7.03125 2.8125H11.25C12.8057 2.8125 14.0625 4.06934 14.0625 5.625C14.0625 7.18066 12.8057 8.4375 11.25 8.4375H7.03125Z" fill="white"/>
</svg>
