<svg width="50" height="50" viewBox="0 0 50 50" fill="none" xmlns="http://www.w3.org/2000/svg">
<mask id="path-1-inside-1_168_77" fill="white">
<path fill-rule="evenodd" clip-rule="evenodd" d="M25 0C11.1929 0 0 11.1929 0 25C0 38.8071 11.1929 50 25 50C38.8071 50 50 38.8071 50 25C50 11.1929 38.8071 0 25 0ZM40.25 21.25H32.75V23.75H40.25V21.25ZM20.4688 23.5312C21.4479 24.5104 22.625 25 24 25C25.375 25 26.5521 24.5104 27.5312 23.5312C28.5104 22.5521 29 21.375 29 20C29 18.625 28.5104 17.4479 27.5312 16.4688C26.5521 15.4896 25.375 15 24 15C22.625 15 21.4479 15.4896 20.4688 16.4688C19.4896 17.4479 19 18.625 19 20C19 21.375 19.4896 22.5521 20.4688 23.5312ZM14 31.5V35H34V31.5C34 30.7917 33.8177 30.1406 33.4531 29.5469C33.0885 28.9531 32.6042 28.5 32 28.1875C30.7083 27.5417 29.3958 27.0573 28.0625 26.7344C26.7292 26.4115 25.375 26.25 24 26.25C22.625 26.25 21.2708 26.4115 19.9375 26.7344C18.6042 27.0573 17.2917 27.5417 16 28.1875C15.3958 28.5 14.9115 28.9531 14.5469 29.5469C14.1823 30.1406 14 30.7917 14 31.5ZM31.5 31.5V32.5H16.5V31.5C16.5 31.2708 16.5573 31.0625 16.6719 30.875C16.7865 30.6875 16.9375 30.5417 17.125 30.4375C18.25 29.875 19.3854 29.4531 20.5312 29.1719C21.6771 28.8906 22.8333 28.75 24 28.75C25.1667 28.75 26.3229 28.8906 27.4688 29.1719C28.6146 29.4531 29.75 29.875 30.875 30.4375C31.0625 30.5417 31.2135 30.6875 31.3281 30.875C31.4427 31.0625 31.5 31.2708 31.5 31.5ZM25.7656 21.7656C25.276 22.2552 24.6875 22.5 24 22.5C23.3125 22.5 22.724 22.2552 22.2344 21.7656C21.7448 21.276 21.5 20.6875 21.5 20C21.5 19.3125 21.7448 18.724 22.2344 18.2344C22.724 17.7448 23.3125 17.5 24 17.5C24.6875 17.5 25.276 17.7448 25.7656 18.2344C26.2552 18.724 26.5 19.3125 26.5 20C26.5 20.6875 26.2552 21.276 25.7656 21.7656Z"/>
</mask>
<path d="M32.75 21.25V20.25H31.75V21.25H32.75ZM40.25 21.25H41.25V20.25H40.25V21.25ZM32.75 23.75H31.75V24.75H32.75V23.75ZM40.25 23.75V24.75H41.25V23.75H40.25ZM27.5312 16.4688L26.8241 17.1759V17.1759L27.5312 16.4688ZM20.4688 16.4688L21.1759 17.1759V17.1759L20.4688 16.4688ZM14 35H13V36H14V35ZM34 35V36H35V35H34ZM32 28.1875L32.4595 27.2992L32.4472 27.2931L32 28.1875ZM16 28.1875L15.5527 27.293L15.5406 27.2993L16 28.1875ZM31.5 32.5V33.5H32.5V32.5H31.5ZM16.5 32.5H15.5V33.5H16.5V32.5ZM17.125 30.4375L16.6778 29.5431L16.6584 29.5528L16.6394 29.5633L17.125 30.4375ZM30.875 30.4375L31.3606 29.5633L31.3416 29.5528L31.3222 29.5431L30.875 30.4375ZM1 25C1 11.7452 11.7452 1 25 1V-1C10.6406 -1 -1 10.6406 -1 25H1ZM25 49C11.7452 49 1 38.2548 1 25H-1C-1 39.3594 10.6406 51 25 51V49ZM49 25C49 38.2548 38.2548 49 25 49V51C39.3594 51 51 39.3594 51 25H49ZM25 1C38.2548 1 49 11.7452 49 25H51C51 10.6406 39.3594 -1 25 -1V1ZM32.75 22.25H40.25V20.25H32.75V22.25ZM33.75 23.75V21.25H31.75V23.75H33.75ZM40.25 22.75H32.75V24.75H40.25V22.75ZM39.25 21.25V23.75H41.25V21.25H39.25ZM24 24C22.8923 24 21.969 23.6173 21.1759 22.8241L19.7616 24.2384C20.9268 25.4036 22.3577 26 24 26V24ZM26.8241 22.8241C26.031 23.6173 25.1077 24 24 24V26C25.6423 26 27.0732 25.4036 28.2384 24.2384L26.8241 22.8241ZM28 20C28 21.1077 27.6173 22.031 26.8241 22.8241L28.2384 24.2384C29.4036 23.0732 30 21.6423 30 20H28ZM26.8241 17.1759C27.6173 17.969 28 18.8923 28 20H30C30 18.3577 29.4036 16.9268 28.2384 15.7616L26.8241 17.1759ZM24 16C25.1077 16 26.031 16.3827 26.8241 17.1759L28.2384 15.7616C27.0732 14.5964 25.6423 14 24 14V16ZM21.1759 17.1759C21.969 16.3827 22.8923 16 24 16V14C22.3577 14 20.9268 14.5964 19.7616 15.7616L21.1759 17.1759ZM20 20C20 18.8923 20.3827 17.969 21.1759 17.1759L19.7616 15.7616C18.5964 16.9268 18 18.3577 18 20H20ZM21.1759 22.8241C20.3827 22.031 20 21.1077 20 20H18C18 21.6423 18.5964 23.0732 19.7616 24.2384L21.1759 22.8241ZM15 35V31.5H13V35H15ZM34 34H14V36H34V34ZM33 31.5V35H35V31.5H33ZM32.601 30.0701C32.8672 30.5037 33 30.9732 33 31.5H35C35 30.6102 34.7682 29.7775 34.3053 29.0236L32.601 30.0701ZM31.5406 29.0757C31.979 29.3025 32.3292 29.6276 32.601 30.0701L34.3053 29.0236C33.8479 28.2787 33.2294 27.6975 32.4594 27.2993L31.5406 29.0757ZM27.8271 27.7063C29.0834 28.0105 30.325 28.4681 31.5528 29.0819L32.4472 27.2931C31.0916 26.6153 29.7083 26.104 28.2979 25.7625L27.8271 27.7063ZM24 27.25C25.2959 27.25 26.571 27.4021 27.8271 27.7063L28.2979 25.7625C26.8873 25.4208 25.4541 25.25 24 25.25V27.25ZM20.1729 27.7063C21.429 27.4021 22.7041 27.25 24 27.25V25.25C22.5459 25.25 21.1127 25.4208 19.7021 25.7625L20.1729 27.7063ZM16.4472 29.0819C17.675 28.4681 18.9166 28.0105 20.1729 27.7063L19.7021 25.7625C18.2917 26.104 16.9084 26.6153 15.5528 27.2931L16.4472 29.0819ZM15.399 30.0701C15.6708 29.6276 16.021 29.3025 16.4594 29.0757L15.5406 27.2993C14.7706 27.6975 14.1521 28.2787 13.6947 29.0236L15.399 30.0701ZM15 31.5C15 30.9732 15.1328 30.5037 15.399 30.0701L13.6947 29.0236C13.2318 29.7775 13 30.6102 13 31.5H15ZM32.5 32.5V31.5H30.5V32.5H32.5ZM16.5 33.5H31.5V31.5H16.5V33.5ZM15.5 31.5V32.5H17.5V31.5H15.5ZM15.8186 30.3535C15.6038 30.705 15.5 31.0951 15.5 31.5H17.5C17.5 31.4466 17.5107 31.42 17.5252 31.3965L15.8186 30.3535ZM16.6394 29.5633C16.2971 29.7535 16.0209 30.0225 15.8186 30.3535L17.5252 31.3965C17.552 31.3525 17.5779 31.3298 17.6106 31.3117L16.6394 29.5633ZM20.2929 28.2007C19.0702 28.5008 17.865 28.9495 16.6778 29.5431L17.5722 31.3319C18.635 30.8005 19.7006 30.4054 20.7696 30.143L20.2929 28.2007ZM24 27.75C22.7521 27.75 21.5158 27.9005 20.2929 28.2007L20.7696 30.143C21.8383 29.8807 22.9146 29.75 24 29.75V27.75ZM27.7071 28.2007C26.4842 27.9005 25.2479 27.75 24 27.75V29.75C25.0854 29.75 26.1617 29.8807 27.2304 30.143L27.7071 28.2007ZM31.3222 29.5431C30.135 28.9495 28.9298 28.5008 27.7071 28.2007L27.2304 30.143C28.2994 30.4054 29.365 30.8005 30.4278 31.3319L31.3222 29.5431ZM32.1814 30.3535C31.9791 30.0225 31.7029 29.7535 31.3606 29.5633L30.3894 31.3117C30.4221 31.3298 30.448 31.3525 30.4748 31.3965L32.1814 30.3535ZM32.5 31.5C32.5 31.0951 32.3962 30.705 32.1814 30.3535L30.4748 31.3965C30.4893 31.42 30.5 31.4466 30.5 31.5H32.5ZM24 23.5C24.9548 23.5 25.7971 23.1484 26.4727 22.4727L25.0585 21.0585C24.755 21.3621 24.4202 21.5 24 21.5V23.5ZM21.5273 22.4727C22.2029 23.1484 23.0452 23.5 24 23.5V21.5C23.5798 21.5 23.245 21.3621 22.9415 21.0585L21.5273 22.4727ZM20.5 20C20.5 20.9548 20.8516 21.7971 21.5273 22.4727L22.9415 21.0585C22.6379 20.755 22.5 20.4202 22.5 20H20.5ZM21.5273 17.5273C20.8516 18.2029 20.5 19.0452 20.5 20H22.5C22.5 19.5798 22.6379 19.245 22.9415 18.9415L21.5273 17.5273ZM24 16.5C23.0452 16.5 22.2029 16.8516 21.5273 17.5273L22.9415 18.9415C23.245 18.6379 23.5798 18.5 24 18.5V16.5ZM26.4727 17.5273C25.7971 16.8516 24.9548 16.5 24 16.5V18.5C24.4202 18.5 24.755 18.6379 25.0585 18.9415L26.4727 17.5273ZM27.5 20C27.5 19.0452 27.1484 18.2029 26.4727 17.5273L25.0585 18.9415C25.3621 19.245 25.5 19.5798 25.5 20H27.5ZM26.4727 22.4727C27.1484 21.7971 27.5 20.9548 27.5 20H25.5C25.5 20.4202 25.3621 20.755 25.0585 21.0585L26.4727 22.4727Z" fill="#242585" mask="url(#path-1-inside-1_168_77)"/>
</svg>
