<svg width="55" height="45" viewBox="0 0 55 45" fill="none" xmlns="http://www.w3.org/2000/svg">
<path d="M19.6875 0C22.6712 0 25.5327 1.18526 27.6425 3.29505C29.7522 5.40483 30.9375 8.26631 30.9375 11.25C30.9375 14.2337 29.7522 17.0952 27.6425 19.205C25.5327 21.3147 22.6712 22.5 19.6875 22.5C16.7038 22.5 13.8423 21.3147 11.7325 19.205C9.62276 17.0952 8.4375 14.2337 8.4375 11.25C8.4375 8.26631 9.62276 5.40483 11.7325 3.29505C13.8423 1.18526 16.7038 0 19.6875 0ZM15.6709 26.7188H23.7041C24.7412 26.7188 25.7607 26.8242 26.7363 27.0088C26.5518 28.6348 27.3867 30.1377 28.6523 30.9463C27.1934 31.8779 26.3057 33.7236 26.8945 35.6309C27.2461 36.7646 27.7207 37.8721 28.3359 38.9355C28.9512 39.999 29.6719 40.9658 30.4805 41.8359C31.8604 43.3213 33.9609 43.4531 35.5078 42.6006V42.6797C35.5078 43.4883 35.7451 44.3057 36.2021 44.9912L2.61035 45C1.16895 45 0 43.8311 0 42.3896C0 33.7324 7.01367 26.7188 15.6709 26.7188ZM38.3203 19.1777C38.3203 18.5625 38.7158 18.0088 39.3135 17.877C40.2363 17.666 41.2031 17.5518 42.1875 17.5518C43.1719 17.5518 44.1387 17.666 45.0615 17.877C45.6592 18.0088 46.0547 18.5625 46.0547 19.1777V21.8672C46.749 22.166 47.4082 22.5439 48.0146 22.9922L50.2031 21.7354C50.7393 21.4277 51.4072 21.498 51.8291 21.9463C52.4971 22.6582 53.0859 23.458 53.5957 24.3369C54.1055 25.2158 54.501 26.1299 54.7822 27.0615C54.9668 27.6504 54.6855 28.2656 54.1494 28.5732L51.9521 29.8389C51.9873 30.1904 52.0137 30.5508 52.0137 30.9199C52.0137 31.2891 51.9961 31.6406 51.9521 32.001L54.1494 33.2666C54.6855 33.5742 54.958 34.1895 54.7822 34.7783C54.4922 35.71 54.0967 36.624 53.5957 37.5029C53.0947 38.3818 52.4971 39.1816 51.8291 39.8936C51.4072 40.3418 50.7305 40.4121 50.2031 40.1045L48.0146 38.8477C47.4082 39.2959 46.7578 39.6738 46.0547 39.9727V42.6621C46.0547 43.2773 45.6592 43.8311 45.0615 43.9629C44.1387 44.1738 43.1719 44.2881 42.1875 44.2881C41.2031 44.2881 40.2363 44.1738 39.3135 43.9629C38.7158 43.8311 38.3203 43.2773 38.3203 42.6621V39.9814C37.6172 39.6826 36.9492 39.3047 36.3428 38.8477L34.1719 40.1045C33.6357 40.4121 32.9678 40.3418 32.5459 39.8936C31.8779 39.1816 31.2891 38.3818 30.7793 37.5029C30.2695 36.624 29.874 35.71 29.5928 34.7783C29.4082 34.1895 29.6895 33.5742 30.2256 33.2666L32.4053 32.0098C32.3701 31.6494 32.3438 31.2891 32.3438 30.9199C32.3438 30.5508 32.3613 30.1904 32.4053 29.8301L30.2168 28.5645C29.6807 28.2568 29.4082 27.6416 29.584 27.0527C29.874 26.1211 30.2607 25.207 30.7705 24.3281C31.2803 23.4492 31.8691 22.6494 32.5371 21.9375C32.959 21.4893 33.627 21.4189 34.1631 21.7266L36.3428 22.9834C36.9492 22.5352 37.6172 22.1572 38.3203 21.8496V19.1689V19.1777ZM46.415 30.9111C46.4411 30.3403 46.3512 29.7702 46.1507 29.2351C45.9502 28.7 45.6433 28.2112 45.2486 27.798C44.8539 27.3849 44.3795 27.0561 43.8541 26.8314C43.3288 26.6067 42.7633 26.4909 42.1919 26.4909C41.6205 26.4909 41.055 26.6067 40.5297 26.8314C40.0043 27.0561 39.5299 27.3849 39.1352 27.798C38.7405 28.2112 38.4336 28.7 38.2331 29.2351C38.0326 29.7702 37.9427 30.3403 37.9688 30.9111C37.9427 31.4819 38.0326 32.0521 38.2331 32.5872C38.4336 33.1222 38.7405 33.6111 39.1352 34.0242C39.5299 34.4374 40.0043 34.7662 40.5297 34.9909C41.055 35.2155 41.6205 35.3314 42.1919 35.3314C42.7633 35.3314 43.3288 35.2155 43.8541 34.9909C44.3795 34.7662 44.8539 34.4374 45.2486 34.0242C45.6433 33.6111 45.9502 33.1222 46.1507 32.5872C46.3512 32.0521 46.4411 31.4819 46.415 30.9111Z" fill="white"/>
</svg>
